 https://svt.se/2.161944/1.2646019/information_in_english

"""
What happens when robots become so human that they can barely be distinguished from real people? When they can even be our lovers? Real Humans takes place in a parallel world to our own, in which people's lives have been completely transformed by the new generation of robots, the Hubots.
"""



           Length: 60 min / ep



General
Unique ID : 234330155466796420096782986441373020621 (0xB04A58A8FE6EDE9693BCC41CCDFC71CD)
Complete name: pagedown-akta.manniskor.101.720p.x264.mkv
Format : Matroska
Format version : Version 2
File size : 2.48 GiB
Duration : 58mn 18s
Overall bit rate : 6 098 Kbps
Encoded date : UTC 2012-01-22 21:43:15
Writing application : mkvmerge v5.2.1 ('A Far Off Place' built on Jan 2 2012 23:21:10
Writing library : libebml v1.2.3 + libmatroska v1.3.0

Video
ID : 1
Format : AVC
Format/Info : Advanced Video Codec
Format profile : High@L4.1
Format settings, CABAC : Yes
Format settings, ReFrames : 5 frames
Codec ID : V_MPEG4/ISO/AVC
Duration : 58mn 18s
Bit rate : 5 529 Kbps
Width : 1 280 pixels
Height : 720 pixels
Display aspect ratio : 16:9
Frame rate : 25.000 fps
Color space : YUV
Chroma subsampling : 4:2:0
Bit depth : 8 bits
Scan type : Progressive
Bits/(Pixel*Frame) : 0.240
Stream size : 2.25 GiB (91%)
Writing library : x264 core 120 r2146 bcd41db
Encoding settings : cabac=1 / ref=5 / deblock=1:0:0 / analyse=0x3:0x113 / me=umh / subme=8 / psy=1 / psy_rd=1.00:0.00 / mixed_ref=1 / me_range=16 / chroma_me=1 / trellis=1 / 8x8dct=1 / cqm=0 / deadzone=21,11 / fast_pskip=1 / chroma_qp_offset=-2 / threads=18 / sliced_threads=0 / nr=0 / decimate=1 / interlaced=0 / bluray_compat=0 / constrained_intra=0 / bframes=3 / b_pyramid=2 / b_adapt=2 / b_bias=0 / direct=3 / weightb=1 / open_gop=0 / weightp=2 / keyint=250 / keyint_min=25 / scenecut=40 / intra_refresh=0 / rc_lookahead=50 / rc=crf / mbtree=1 / crf=18.0 / qcomp=0.60 / qpmin=0 / qpmax=69 / qpstep=4 / ip_ratio=1.40 / aq=1:1.00
Default : Yes
Forced : No

Audio
ID : 2
Format : AC-3
Format/Info : Audio Coding 3
Mode extension : CM (complete main)
Codec ID : A_AC3
Duration : 58mn 18s
Bit rate mode : Constant
Bit rate : 448 Kbps
Channel(s) : 6 channels
Channel positions : Front: L C R, Side: L R, LFE
Sampling rate : 48.0 KHz
Bit depth : 16 bits
Compression mode : Lossy
Delay relative to video : 26ms
Stream size : 187 MiB (7%)
Language : Swedish
Default : Yes
Forced : No